<svg xmlns="http://www.w3.org/2000/svg" viewBox="0 0 432.28 677.29">
    <defs>
        <style>.cls-1{fill:none;}.cls-2{fill:#82bfab;}.cls-3{fill:#616e7d;}.cls-4{fill:#aad4c8;}</style>
    </defs>
    <title>Asset 1</title>
    <g id="Layer_2" data-name="Layer 2">
        <g id="Object">
            <path class="cls-1" d="M121.77,394.43a13.1,13.1,0,1,0,13.11-13.09A13.1,13.1,0,0,0,121.77,394.43Z"/>
            <path class="cls-1" d="M160.52,439.47a13.1,13.1,0,1,0,13.11-13.11A13.1,13.1,0,0,0,160.52,439.47Z"/>
            <path class="cls-1" d="M202.37,394.43a13.1,13.1,0,1,0,13.09-13.09A13.1,13.1,0,0,0,202.37,394.43Z"/>
            <path class="cls-1"
                  d="M76.89,305.44v73.49c0,69.21,62.21,125.52,138.67,125.52s138.69-56.31,138.69-125.52V305.44H347.6v42a131.46,131.46,0,1,1-262.92,0v-42Z"/>
            <path class="cls-1" d="M283,394.43a13.09,13.09,0,1,0,13.09-13.09A13.09,13.09,0,0,0,283,394.43Z"/>
            <path class="cls-1" d="M241.11,439.47a13.11,13.11,0,1,0,13.09-13.11A13.1,13.1,0,0,0,241.11,439.47Z"/>
            <path class="cls-2"
                  d="M399.15,305.44H390v20.84a7.29,7.29,0,0,0,6.12,3.46h28.77a7.44,7.44,0,0,0,7.43-7.44V269a7.44,7.44,0,0,0-7.43-7.44H396.08a7.44,7.44,0,0,0-7.44,7.44v15.69h10.51c4.11,0,7.44,1.59,7.44,3.55v13.7C406.59,303.85,403.26,305.44,399.15,305.44Z"/>
            <path class="cls-2"
                  d="M32.38,284.66H43.66V269a7.45,7.45,0,0,0-7.44-7.44H7.44A7.45,7.45,0,0,0,0,269V322.3a7.45,7.45,0,0,0,7.44,7.44H36.22a7.34,7.34,0,0,0,5-2V305.44H32.38c-4.12,0-7.44-1.59-7.44-3.53v-13.7C24.94,286.25,28.26,284.66,32.38,284.66Z"/>
            <path class="cls-3"
                  d="M390,378.93V305.44h9.19c4.11,0,7.44-1.59,7.44-3.53v-13.7c0-2-3.33-3.55-7.44-3.55H347.6v20.78h6.65v73.49c0,69.21-62.21,125.52-138.69,125.52S76.89,448.14,76.89,378.93V305.44h7.79V284.66H32.38c-4.12,0-7.44,1.59-7.44,3.55v13.7c0,1.94,3.32,3.53,7.44,3.53h8.79v73.49c0,83.32,68.74,152.09,156.54,160.38v93H150a44.51,44.51,0,0,0-44.51,44.51v.44H325.6v-.44a44.5,44.5,0,0,0-44.5-44.51H233.43v-93C321.23,531,390,462.25,390,378.93Z"/>
            <path class="cls-3"
                  d="M276,174.35H347.6V148.79H276a12.79,12.79,0,1,1,0-25.58h71.31a131.44,131.44,0,0,0-262.36,0h71.32a12.79,12.79,0,0,1,0,25.58H84.68v25.56h71.61a12.79,12.79,0,0,1,0,25.58H84.68v60.44H347.6V199.93H276a12.79,12.79,0,1,1,0-25.58Z"/>
            <path class="cls-4"
                  d="M84.68,284.66v62.78a131.46,131.46,0,1,0,262.92,0V269.67H84.68Zm211.38,96.68A13.1,13.1,0,1,1,283,394.43,13.1,13.1,0,0,1,296.06,381.34Zm-41.86,45a13.1,13.1,0,1,1-13.09,13.11A13.11,13.11,0,0,1,254.2,426.36Zm-38.74-45a13.1,13.1,0,1,1-13.09,13.09A13.11,13.11,0,0,1,215.46,381.34Zm-41.83,45a13.1,13.1,0,1,1-13.11,13.11A13.11,13.11,0,0,1,173.63,426.36Zm-38.75-45a13.1,13.1,0,1,1-13.11,13.09A13.1,13.1,0,0,1,134.88,381.34Z"/>
        </g>
    </g>
</svg>